<svg width="180" height="181" viewBox="0 0 180 181" fill="none" xmlns="http://www.w3.org/2000/svg">
<path d="M120.302 40.9738C120.302 53.1792 113.006 63.7438 102.555 68.5276C100.166 69.6249 98.6534 72.0376 98.6534 74.6684V76.4269H81.3458V74.6615C81.3458 72.0376 79.8434 69.6215 77.455 68.5276C66.8211 63.6642 59.4584 52.8296 59.7042 40.3715C60.0123 24.6976 72.3908 11.7273 88.0369 10.7199C105.598 9.59114 120.302 23.6142 120.302 40.9738Z" fill="#2F4054"/>
<path d="M150.577 47.0036C156.312 47.0036 160.962 42.3543 160.962 36.619C160.962 30.8837 156.312 26.2344 150.577 26.2344C144.842 26.2344 140.192 30.8837 140.192 36.619C140.192 42.3543 144.842 47.0036 150.577 47.0036Z" fill="#394E66"/>
<path d="M29.4231 48.7344C33.2446 48.7344 36.3462 51.8325 36.3462 55.6575C36.3462 59.4825 33.2446 62.5805 29.4231 62.5805C25.5981 62.5805 22.5 59.4825 22.5 55.6575C22.5 51.8325 25.5981 48.7344 29.4231 48.7344Z" fill="#394E66"/>
<path d="M145.385 145.66V159.506L90 169.891V156.045L145.385 145.66Z" fill="#394E66"/>
<path d="M145.385 114.504V145.657L90 156.042V93.7344L107.308 121.427L145.347 114.296L145.385 114.504Z" fill="#2F4054"/>
<path d="M89.9999 156.045V169.891L34.6152 159.506V145.66L89.9999 156.045Z" fill="#394E66"/>
<path d="M89.9999 93.7344V156.042L34.6152 145.657V114.504L34.6533 114.296L72.6922 121.427L89.9999 93.7344Z" fill="#2F4054"/>
<path d="M145.385 83.3516L162.692 111.044C162.56 111.068 107.352 121.42 107.308 121.428L90 93.7362L145.385 83.3516Z" fill="#394E66"/>
<path d="M89.9999 93.7362L72.6922 121.428C72.5558 121.403 17.3509 111.052 17.3076 111.044L34.6153 83.3516L89.9999 93.7362Z" fill="#394E66"/>
<path d="M81.3457 76.4258H98.6534V83.3489H81.3457V76.4258Z" fill="#394E66"/>
<path d="M163.557 67.7743C164.991 67.7743 166.153 66.612 166.153 65.1782C166.153 63.7444 164.991 62.582 163.557 62.582C162.123 62.582 160.961 63.7444 160.961 65.1782C160.961 66.612 162.123 67.7743 163.557 67.7743Z" fill="#6A86A6"/>
<path d="M132.404 60.8486C133.838 60.8486 135 59.6862 135 58.2524C135 56.8186 133.838 55.6562 132.404 55.6562C130.97 55.6562 129.808 56.8186 129.808 58.2524C129.808 59.6862 130.97 60.8486 132.404 60.8486Z" fill="#6A86A6"/>
<path d="M127.211 17.5829C128.645 17.5829 129.808 16.4206 129.808 14.9868C129.808 13.553 128.645 12.3906 127.211 12.3906C125.778 12.3906 124.615 13.553 124.615 14.9868C124.615 16.4206 125.778 17.5829 127.211 17.5829Z" fill="#6A86A6"/>
<path d="M44.1342 19.3134C45.5681 19.3134 46.7304 18.1511 46.7304 16.7172C46.7304 15.2834 45.5681 14.1211 44.1342 14.1211C42.7004 14.1211 41.5381 15.2834 41.5381 16.7172C41.5381 18.1511 42.7004 19.3134 44.1342 19.3134Z" fill="#6A86A6"/>
<path d="M18.1733 81.6181C19.6071 81.6181 20.7695 80.4558 20.7695 79.0219C20.7695 77.5881 19.6071 76.4258 18.1733 76.4258C16.7395 76.4258 15.5771 77.5881 15.5771 79.0219C15.5771 80.4558 16.7395 81.6181 18.1733 81.6181Z" fill="#6A86A6"/>
<path d="M89.9978 171.62C89.1812 171.62 88.4546 171.039 88.2985 170.208C88.1223 169.268 88.7412 168.364 89.6807 168.188L143.654 158.068V114.504C143.654 113.548 144.428 112.773 145.384 112.773C146.341 112.773 147.115 113.548 147.115 114.504V159.504C147.115 160.337 146.522 161.052 145.704 161.205L90.319 171.59C90.211 171.61 90.1037 171.62 89.9978 171.62Z" fill="#6A86A6"/>
<path d="M107.307 123.16C106.718 123.16 106.16 122.858 105.84 122.346L88.5324 94.6539C88.2295 94.1686 88.1855 93.5649 88.4154 93.0409C88.6452 92.5168 89.1191 92.1409 89.6812 92.0356L145.066 81.6507C145.766 81.5198 146.475 81.8307 146.853 82.4347L164.16 110.127C164.463 110.612 164.507 111.216 164.277 111.739C164.048 112.263 163.574 112.64 163.012 112.745L107.627 123.13C107.52 123.15 107.413 123.16 107.307 123.16ZM92.8119 94.9696L108.15 119.51L159.881 109.811L144.543 85.2707L92.8119 94.9696Z" fill="#6A86A6"/>
<path d="M98.6537 85.081H81.346C80.3902 85.081 79.6152 84.306 79.6152 83.3503V74.6618C79.6152 72.6929 78.4843 70.9029 76.7349 70.1016C65.0868 64.7742 57.7227 53.0909 57.974 40.3375C58.2987 23.8215 71.4553 10.0532 87.926 8.99294C88.6204 8.94828 89.3234 8.92578 90.0154 8.92578C107.67 8.92578 122.033 23.3026 122.033 40.9741C122.033 53.4522 114.67 64.8854 103.276 70.1016C101.52 70.9081 100.384 72.7008 100.384 74.6684V83.3499C100.384 84.3063 99.6097 85.081 98.6537 85.081ZM83.0767 81.6195H96.9229V74.6687C96.9229 71.3532 98.8496 68.3254 101.832 66.9554C112.002 62.2999 118.571 52.1022 118.571 40.9741C118.571 25.2113 105.761 12.3873 90.0154 12.3873C89.3972 12.3873 88.7686 12.4077 88.1482 12.4476C73.4585 13.3932 61.7246 25.6737 61.4349 40.4057C61.2105 51.7796 67.7812 62.2002 78.1752 66.954C81.1532 68.3175 83.0767 71.3429 83.0767 74.6618V81.6195Z" fill="#6A86A6"/>
<path d="M112.822 43.8758C111.866 43.8758 111.091 43.1008 111.091 42.145C111.091 36.3477 108.654 30.7368 104.404 26.7519C100.106 22.722 94.5077 20.7112 88.6334 21.0885C77.7884 21.7863 69.1259 30.8511 68.9124 41.7255C68.8937 42.6812 68.1148 43.4372 67.148 43.422C66.1923 43.4033 65.4328 42.6134 65.4515 41.6577C65.7 28.9988 75.7852 18.4463 88.4112 17.6342C95.2481 17.1953 101.769 19.5357 106.772 24.2271C111.717 28.8642 114.553 35.395 114.553 42.1454C114.553 43.1011 113.778 43.8758 112.822 43.8758Z" fill="#6A86A6"/>
<path d="M84.8078 47.8852C80.9905 47.8852 77.8848 44.7795 77.8848 40.9621C77.8848 37.1448 80.9905 34.0391 84.8078 34.0391C88.6252 34.0391 91.7309 37.1448 91.7309 40.9621C91.7309 44.7795 88.6252 47.8852 84.8078 47.8852ZM84.8078 37.5006C82.8992 37.5006 81.3463 39.0534 81.3463 40.9621C81.3463 42.8708 82.8992 44.4237 84.8078 44.4237C86.7165 44.4237 88.2694 42.8708 88.2694 40.9621C88.2694 39.0534 86.7165 37.5006 84.8078 37.5006Z" fill="#6A86A6"/>
<path d="M95.1926 47.8852C91.3756 47.8852 88.2695 44.7795 88.2695 40.9621C88.2695 37.1448 91.3756 34.0391 95.1926 34.0391C99.0096 34.0391 102.116 37.1448 102.116 40.9621C102.116 44.7795 99.0096 47.8852 95.1926 47.8852ZM95.1926 37.5006C93.2839 37.5006 91.7311 39.0534 91.7311 40.9621C91.7311 42.8708 93.2839 44.4237 95.1926 44.4237C97.1013 44.4237 98.6541 42.8708 98.6541 40.9621C98.6541 39.0534 97.1013 37.5006 95.1926 37.5006Z" fill="#6A86A6"/>
<path d="M90.0003 68.6535C89.0442 68.6535 88.2695 67.8785 88.2695 66.9228V40.9612C88.2695 40.0055 89.0442 39.2305 90.0003 39.2305C90.9564 39.2305 91.7311 40.0055 91.7311 40.9612V66.9228C91.7311 67.8785 90.9564 68.6535 90.0003 68.6535Z" fill="#6A86A6"/>
<path d="M89.9995 171.619C89.8933 171.619 89.7866 171.609 89.6804 171.59L34.2958 161.205C33.4771 161.052 32.8838 160.337 32.8838 159.504V114.504C32.8838 113.548 33.6588 112.773 34.6146 112.773C35.5703 112.773 36.3453 113.548 36.3453 114.504V158.067L88.2684 167.803V93.7347C88.2684 92.7786 89.0431 92.0039 89.9992 92.0039C90.9553 92.0039 91.7299 92.7786 91.7299 93.7347V169.889C91.7299 170.403 91.5008 170.891 91.1044 171.221C90.7919 171.48 90.3997 171.619 89.9995 171.619Z" fill="#6A86A6"/>
<path d="M89.9978 157.772C89.1812 157.772 88.4546 157.192 88.2985 156.361C88.1223 155.421 88.7412 154.517 89.6807 154.341L145.065 143.956C146.004 143.779 146.909 144.398 147.085 145.338C147.262 146.278 146.643 147.182 145.704 147.358L90.319 157.743C90.211 157.763 90.1037 157.772 89.9978 157.772Z" fill="#6A86A6"/>
<path d="M90.0018 157.773C89.8955 157.773 89.7889 157.763 89.6806 157.743L34.2959 147.358C33.3565 147.182 32.7376 146.278 32.9138 145.338C33.0899 144.398 33.9948 143.778 34.9339 143.956L90.3185 154.341C91.258 154.517 91.8769 155.421 91.7004 156.361C91.5449 157.192 90.818 157.773 90.0018 157.773Z" fill="#6A86A6"/>
<path d="M72.6926 123.16C72.5867 123.16 72.4801 123.15 72.3735 123.13L16.9889 112.745C16.4264 112.64 15.9528 112.263 15.723 111.739C15.4931 111.215 15.5371 110.612 15.84 110.127L33.1477 82.4346C33.5253 81.8306 34.2339 81.5201 34.9345 81.6506L90.3191 92.0355C90.8813 92.1411 91.3548 92.517 91.5847 93.0407C91.8145 93.5645 91.7706 94.1685 91.4677 94.6538L74.16 122.346C73.8398 122.858 73.2818 123.16 72.6926 123.16ZM20.1198 109.811L71.8504 119.51L87.1882 94.9695L35.4572 85.2703L20.1198 109.811Z" fill="#6A86A6"/>
<path d="M34.613 85.0805C33.7964 85.0805 33.0699 84.5 32.9138 83.6682C32.7376 82.7287 33.3565 81.8242 34.2959 81.6481L61.9883 76.4557C62.9267 76.2796 63.8322 76.8985 64.0084 77.8379C64.1846 78.7774 63.5657 79.6819 62.6262 79.8581L34.9339 85.0504C34.8263 85.0708 34.7189 85.0805 34.613 85.0805Z" fill="#6A86A6"/>
<path d="M145.386 85.0798C145.28 85.0798 145.174 85.0701 145.065 85.05L117.373 79.8577C116.433 79.6815 115.814 78.777 115.991 77.8376C116.167 76.8978 117.072 76.2806 118.011 76.4554L145.703 81.6477C146.643 81.8239 147.262 82.7284 147.085 83.6678C146.93 84.4997 146.203 85.0798 145.386 85.0798Z" fill="#6A86A6"/>
<path d="M24.2308 157.775C23.275 157.775 22.5 157 22.5 156.044V128.352C22.5 127.396 23.275 126.621 24.2308 126.621C25.1865 126.621 25.9615 127.396 25.9615 128.352V156.044C25.9615 157 25.1865 157.775 24.2308 157.775Z" fill="#6A86A6"/>
<path d="M13.846 164.698C12.8903 164.698 12.1152 163.924 12.1152 162.968V149.121C12.1152 148.165 12.8903 147.391 13.846 147.391C14.8017 147.391 15.5768 148.165 15.5768 149.121V162.968C15.5768 163.924 14.8017 164.698 13.846 164.698Z" fill="#6A86A6"/>
<path d="M155.769 157.775C154.813 157.775 154.038 157 154.038 156.044V128.352C154.038 127.396 154.813 126.621 155.769 126.621C156.725 126.621 157.5 127.396 157.5 128.352V156.044C157.5 157 156.725 157.775 155.769 157.775Z" fill="#6A86A6"/>
<path d="M166.154 164.698C165.198 164.698 164.423 163.924 164.423 162.968V149.121C164.423 148.165 165.198 147.391 166.154 147.391C167.11 147.391 167.884 148.165 167.884 149.121V162.968C167.884 163.924 167.11 164.698 166.154 164.698Z" fill="#6A86A6"/>
<path d="M98.6537 78.1569H81.346C80.3903 78.1569 79.6152 77.3818 79.6152 76.4261C79.6152 75.4704 80.3903 74.6953 81.346 74.6953H98.6537C99.6098 74.6953 100.384 75.4704 100.384 76.4261C100.384 77.3818 99.6098 78.1569 98.6537 78.1569Z" fill="#6A86A6"/>
<path d="M29.4234 64.3116C24.6516 64.3116 20.7695 60.4295 20.7695 55.6578C20.7695 50.886 24.6516 47.0039 29.4234 47.0039C34.1951 47.0039 38.0772 50.886 38.0772 55.6578C38.0772 60.4295 34.1951 64.3116 29.4234 64.3116ZM29.4234 50.4654C26.5603 50.4654 24.2311 52.7947 24.2311 55.6578C24.2311 58.5208 26.5603 60.8501 29.4234 60.8501C32.2864 60.8501 34.6157 58.5208 34.6157 55.6578C34.6157 52.7947 32.2864 50.4654 29.4234 50.4654Z" fill="#6A86A6"/>
<path d="M150.576 48.7347C143.896 48.7347 138.461 43.2997 138.461 36.6193C138.461 29.9389 143.896 24.5039 150.576 24.5039C157.257 24.5039 162.692 29.9389 162.692 36.6193C162.692 43.2997 157.257 48.7347 150.576 48.7347ZM150.576 27.9654C145.805 27.9654 141.922 31.8476 141.922 36.6193C141.922 41.391 145.805 45.2731 150.576 45.2731C155.348 45.2731 159.23 41.391 159.23 36.6193C159.23 31.8476 155.348 27.9654 150.576 27.9654Z" fill="#6A86A6"/>
<path d="M120.302 40.9738C120.302 53.1792 113.006 63.7438 102.555 68.5276C100.166 69.6249 98.6534 72.0376 98.6534 74.6684V76.4269H81.3458V74.6615C81.3458 72.0376 79.8434 69.6215 77.455 68.5276C66.8211 63.6642 59.4584 52.8296 59.7042 40.3715C60.0123 24.6976 72.3908 11.7273 88.0369 10.7199C105.598 9.59114 120.302 23.6142 120.302 40.9738Z" fill="#2F4054"/>
<path d="M150.577 47.0036C156.312 47.0036 160.962 42.3543 160.962 36.619C160.962 30.8837 156.312 26.2344 150.577 26.2344C144.842 26.2344 140.192 30.8837 140.192 36.619C140.192 42.3543 144.842 47.0036 150.577 47.0036Z" fill="#394E66"/>
<path d="M29.4231 48.7344C33.2446 48.7344 36.3462 51.8325 36.3462 55.6575C36.3462 59.4825 33.2446 62.5805 29.4231 62.5805C25.5981 62.5805 22.5 59.4825 22.5 55.6575C22.5 51.8325 25.5981 48.7344 29.4231 48.7344Z" fill="#394E66"/>
<path d="M145.385 145.66V159.506L90 169.891V156.045L145.385 145.66Z" fill="#394E66"/>
<path d="M145.385 114.504V145.657L90 156.042V93.7344L107.308 121.427L145.347 114.296L145.385 114.504Z" fill="#2F4054"/>
<path d="M89.9999 156.045V169.891L34.6152 159.506V145.66L89.9999 156.045Z" fill="#394E66"/>
<path d="M89.9999 93.7344V156.042L34.6152 145.657V114.504L34.6533 114.296L72.6922 121.427L89.9999 93.7344Z" fill="#2F4054"/>
<path d="M145.385 83.3516L162.692 111.044C162.56 111.068 107.352 121.42 107.308 121.428L90 93.7362L145.385 83.3516Z" fill="#394E66"/>
<path d="M89.9999 93.7362L72.6922 121.428C72.5558 121.403 17.3509 111.052 17.3076 111.044L34.6153 83.3516L89.9999 93.7362Z" fill="#394E66"/>
<path d="M81.3457 76.4258H98.6534V83.3489H81.3457V76.4258Z" fill="#394E66"/>
<path d="M163.557 67.7743C164.991 67.7743 166.153 66.612 166.153 65.1782C166.153 63.7444 164.991 62.582 163.557 62.582C162.123 62.582 160.961 63.7444 160.961 65.1782C160.961 66.612 162.123 67.7743 163.557 67.7743Z" fill="#6A86A6"/>
<path d="M132.404 60.8486C133.838 60.8486 135 59.6862 135 58.2524C135 56.8186 133.838 55.6562 132.404 55.6562C130.97 55.6562 129.808 56.8186 129.808 58.2524C129.808 59.6862 130.97 60.8486 132.404 60.8486Z" fill="#6A86A6"/>
<path d="M127.211 17.5829C128.645 17.5829 129.808 16.4206 129.808 14.9868C129.808 13.553 128.645 12.3906 127.211 12.3906C125.778 12.3906 124.615 13.553 124.615 14.9868C124.615 16.4206 125.778 17.5829 127.211 17.5829Z" fill="#6A86A6"/>
<path d="M44.1342 19.3134C45.5681 19.3134 46.7304 18.1511 46.7304 16.7172C46.7304 15.2834 45.5681 14.1211 44.1342 14.1211C42.7004 14.1211 41.5381 15.2834 41.5381 16.7172C41.5381 18.1511 42.7004 19.3134 44.1342 19.3134Z" fill="#6A86A6"/>
<path d="M18.1733 81.6181C19.6071 81.6181 20.7695 80.4558 20.7695 79.0219C20.7695 77.5881 19.6071 76.4258 18.1733 76.4258C16.7395 76.4258 15.5771 77.5881 15.5771 79.0219C15.5771 80.4558 16.7395 81.6181 18.1733 81.6181Z" fill="#6A86A6"/>
<path d="M89.9978 171.62C89.1812 171.62 88.4546 171.039 88.2985 170.208C88.1223 169.268 88.7412 168.364 89.6807 168.188L143.654 158.068V114.504C143.654 113.548 144.428 112.773 145.384 112.773C146.341 112.773 147.115 113.548 147.115 114.504V159.504C147.115 160.337 146.522 161.052 145.704 161.205L90.319 171.59C90.211 171.61 90.1037 171.62 89.9978 171.62Z" fill="#6A86A6"/>
<path d="M107.307 123.16C106.718 123.16 106.16 122.858 105.84 122.346L88.5324 94.6539C88.2295 94.1686 88.1855 93.5649 88.4154 93.0409C88.6452 92.5168 89.1191 92.1409 89.6812 92.0356L145.066 81.6507C145.766 81.5198 146.475 81.8307 146.853 82.4347L164.16 110.127C164.463 110.612 164.507 111.216 164.277 111.739C164.048 112.263 163.574 112.64 163.012 112.745L107.627 123.13C107.52 123.15 107.413 123.16 107.307 123.16ZM92.8119 94.9696L108.15 119.51L159.881 109.811L144.543 85.2707L92.8119 94.9696Z" fill="#6A86A6"/>
<path d="M98.6537 85.081H81.346C80.3902 85.081 79.6152 84.306 79.6152 83.3503V74.6618C79.6152 72.6929 78.4843 70.9029 76.7349 70.1016C65.0868 64.7742 57.7227 53.0909 57.974 40.3375C58.2987 23.8215 71.4553 10.0532 87.926 8.99294C88.6204 8.94828 89.3234 8.92578 90.0154 8.92578C107.67 8.92578 122.033 23.3026 122.033 40.9741C122.033 53.4522 114.67 64.8854 103.276 70.1016C101.52 70.9081 100.384 72.7008 100.384 74.6684V83.3499C100.384 84.3063 99.6097 85.081 98.6537 85.081ZM83.0767 81.6195H96.9229V74.6687C96.9229 71.3532 98.8496 68.3254 101.832 66.9554C112.002 62.2999 118.571 52.1022 118.571 40.9741C118.571 25.2113 105.761 12.3873 90.0154 12.3873C89.3972 12.3873 88.7686 12.4077 88.1482 12.4476C73.4585 13.3932 61.7246 25.6737 61.4349 40.4057C61.2105 51.7796 67.7812 62.2002 78.1752 66.954C81.1532 68.3175 83.0767 71.3429 83.0767 74.6618V81.6195Z" fill="#6A86A6"/>
<path d="M112.822 43.8758C111.866 43.8758 111.091 43.1008 111.091 42.145C111.091 36.3477 108.654 30.7368 104.404 26.7519C100.106 22.722 94.5077 20.7112 88.6334 21.0885C77.7884 21.7863 69.1259 30.8511 68.9124 41.7255C68.8937 42.6812 68.1148 43.4372 67.148 43.422C66.1923 43.4033 65.4328 42.6134 65.4515 41.6577C65.7 28.9988 75.7852 18.4463 88.4112 17.6342C95.2481 17.1953 101.769 19.5357 106.772 24.2271C111.717 28.8642 114.553 35.395 114.553 42.1454C114.553 43.1011 113.778 43.8758 112.822 43.8758Z" fill="#6A86A6"/>
<path d="M84.8078 47.8852C80.9905 47.8852 77.8848 44.7795 77.8848 40.9621C77.8848 37.1448 80.9905 34.0391 84.8078 34.0391C88.6252 34.0391 91.7309 37.1448 91.7309 40.9621C91.7309 44.7795 88.6252 47.8852 84.8078 47.8852ZM84.8078 37.5006C82.8992 37.5006 81.3463 39.0534 81.3463 40.9621C81.3463 42.8708 82.8992 44.4237 84.8078 44.4237C86.7165 44.4237 88.2694 42.8708 88.2694 40.9621C88.2694 39.0534 86.7165 37.5006 84.8078 37.5006Z" fill="#6A86A6"/>
<path d="M95.1926 47.8852C91.3756 47.8852 88.2695 44.7795 88.2695 40.9621C88.2695 37.1448 91.3756 34.0391 95.1926 34.0391C99.0096 34.0391 102.116 37.1448 102.116 40.9621C102.116 44.7795 99.0096 47.8852 95.1926 47.8852ZM95.1926 37.5006C93.2839 37.5006 91.7311 39.0534 91.7311 40.9621C91.7311 42.8708 93.2839 44.4237 95.1926 44.4237C97.1013 44.4237 98.6541 42.8708 98.6541 40.9621C98.6541 39.0534 97.1013 37.5006 95.1926 37.5006Z" fill="#6A86A6"/>
<path d="M90.0003 68.6535C89.0442 68.6535 88.2695 67.8785 88.2695 66.9228V40.9612C88.2695 40.0055 89.0442 39.2305 90.0003 39.2305C90.9564 39.2305 91.7311 40.0055 91.7311 40.9612V66.9228C91.7311 67.8785 90.9564 68.6535 90.0003 68.6535Z" fill="#6A86A6"/>
<path d="M89.9995 171.619C89.8933 171.619 89.7866 171.609 89.6804 171.59L34.2958 161.205C33.4771 161.052 32.8838 160.337 32.8838 159.504V114.504C32.8838 113.548 33.6588 112.773 34.6146 112.773C35.5703 112.773 36.3453 113.548 36.3453 114.504V158.067L88.2684 167.803V93.7347C88.2684 92.7786 89.0431 92.0039 89.9992 92.0039C90.9553 92.0039 91.7299 92.7786 91.7299 93.7347V169.889C91.7299 170.403 91.5008 170.891 91.1044 171.221C90.7919 171.48 90.3997 171.619 89.9995 171.619Z" fill="#6A86A6"/>
<path d="M89.9978 157.772C89.1812 157.772 88.4546 157.192 88.2985 156.361C88.1223 155.421 88.7412 154.517 89.6807 154.341L145.065 143.956C146.004 143.779 146.909 144.398 147.085 145.338C147.262 146.278 146.643 147.182 145.704 147.358L90.319 157.743C90.211 157.763 90.1037 157.772 89.9978 157.772Z" fill="#6A86A6"/>
<path d="M90.0018 157.773C89.8955 157.773 89.7889 157.763 89.6806 157.743L34.2959 147.358C33.3565 147.182 32.7376 146.278 32.9138 145.338C33.0899 144.398 33.9948 143.778 34.9339 143.956L90.3185 154.341C91.258 154.517 91.8769 155.421 91.7004 156.361C91.5449 157.192 90.818 157.773 90.0018 157.773Z" fill="#6A86A6"/>
<path d="M72.6926 123.16C72.5867 123.16 72.4801 123.15 72.3735 123.13L16.9889 112.745C16.4264 112.64 15.9528 112.263 15.723 111.739C15.4931 111.215 15.5371 110.612 15.84 110.127L33.1477 82.4346C33.5253 81.8306 34.2339 81.5201 34.9345 81.6506L90.3191 92.0355C90.8813 92.1411 91.3548 92.517 91.5847 93.0407C91.8145 93.5645 91.7706 94.1685 91.4677 94.6538L74.16 122.346C73.8398 122.858 73.2818 123.16 72.6926 123.16ZM20.1198 109.811L71.8504 119.51L87.1882 94.9695L35.4572 85.2703L20.1198 109.811Z" fill="#6A86A6"/>
<path d="M34.613 85.0805C33.7964 85.0805 33.0699 84.5 32.9138 83.6682C32.7376 82.7287 33.3565 81.8242 34.2959 81.6481L61.9883 76.4557C62.9267 76.2796 63.8322 76.8985 64.0084 77.8379C64.1846 78.7774 63.5657 79.6819 62.6262 79.8581L34.9339 85.0504C34.8263 85.0708 34.7189 85.0805 34.613 85.0805Z" fill="#6A86A6"/>
<path d="M145.386 85.0798C145.28 85.0798 145.174 85.0701 145.065 85.05L117.373 79.8577C116.433 79.6815 115.814 78.777 115.991 77.8376C116.167 76.8978 117.072 76.2806 118.011 76.4554L145.703 81.6477C146.643 81.8239 147.262 82.7284 147.085 83.6678C146.93 84.4997 146.203 85.0798 145.386 85.0798Z" fill="#6A86A6"/>
<path d="M24.2308 157.775C23.275 157.775 22.5 157 22.5 156.044V128.352C22.5 127.396 23.275 126.621 24.2308 126.621C25.1865 126.621 25.9615 127.396 25.9615 128.352V156.044C25.9615 157 25.1865 157.775 24.2308 157.775Z" fill="#6A86A6"/>
<path d="M13.846 164.698C12.8903 164.698 12.1152 163.924 12.1152 162.968V149.121C12.1152 148.165 12.8903 147.391 13.846 147.391C14.8017 147.391 15.5768 148.165 15.5768 149.121V162.968C15.5768 163.924 14.8017 164.698 13.846 164.698Z" fill="#6A86A6"/>
<path d="M155.769 157.775C154.813 157.775 154.038 157 154.038 156.044V128.352C154.038 127.396 154.813 126.621 155.769 126.621C156.725 126.621 157.5 127.396 157.5 128.352V156.044C157.5 157 156.725 157.775 155.769 157.775Z" fill="#6A86A6"/>
<path d="M166.154 164.698C165.198 164.698 164.423 163.924 164.423 162.968V149.121C164.423 148.165 165.198 147.391 166.154 147.391C167.11 147.391 167.884 148.165 167.884 149.121V162.968C167.884 163.924 167.11 164.698 166.154 164.698Z" fill="#6A86A6"/>
<path d="M98.6537 78.1569H81.346C80.3903 78.1569 79.6152 77.3818 79.6152 76.4261C79.6152 75.4704 80.3903 74.6953 81.346 74.6953H98.6537C99.6098 74.6953 100.384 75.4704 100.384 76.4261C100.384 77.3818 99.6098 78.1569 98.6537 78.1569Z" fill="#6A86A6"/>
<path d="M29.4234 64.3116C24.6516 64.3116 20.7695 60.4295 20.7695 55.6578C20.7695 50.886 24.6516 47.0039 29.4234 47.0039C34.1951 47.0039 38.0772 50.886 38.0772 55.6578C38.0772 60.4295 34.1951 64.3116 29.4234 64.3116ZM29.4234 50.4654C26.5603 50.4654 24.2311 52.7947 24.2311 55.6578C24.2311 58.5208 26.5603 60.8501 29.4234 60.8501C32.2864 60.8501 34.6157 58.5208 34.6157 55.6578C34.6157 52.7947 32.2864 50.4654 29.4234 50.4654Z" fill="#6A86A6"/>
<path d="M150.576 48.7347C143.896 48.7347 138.461 43.2997 138.461 36.6193C138.461 29.9389 143.896 24.5039 150.576 24.5039C157.257 24.5039 162.692 29.9389 162.692 36.6193C162.692 43.2997 157.257 48.7347 150.576 48.7347ZM150.576 27.9654C145.805 27.9654 141.922 31.8476 141.922 36.6193C141.922 41.391 145.805 45.2731 150.576 45.2731C155.348 45.2731 159.23 41.391 159.23 36.6193C159.23 31.8476 155.348 27.9654 150.576 27.9654Z" fill="#6A86A6"/>
</svg>
